<?xml version="1.0" standalone="no"?><!DOCTYPE svg PUBLIC "-//W3C//DTD SVG 1.1//EN" "http://www.w3.org/Graphics/SVG/1.1/DTD/svg11.dtd"><svg t="1620046370763" class="icon" viewBox="0 0 1024 1024" version="1.1" xmlns="http://www.w3.org/2000/svg" p-id="1510" xmlns:xlink="http://www.w3.org/1999/xlink" width="200" height="200"><defs><style type="text/css"></style></defs><path d="M451.180395 502.589517H237.52757A237.004765 237.004765 0 0 1 0.871341 265.933288v-29.277059A237.004765 237.004765 0 0 1 237.52757 0h29.277059a237.004765 237.004765 0 0 1 236.656229 236.656229v213.652825a52.280463 52.280463 0 0 1-52.280463 52.280463zM237.52757 104.560926A132.095303 132.095303 0 0 0 105.432267 236.656229v29.277059a132.095303 132.095303 0 0 0 132.095303 132.095303h161.372362V236.656229A132.095303 132.095303 0 0 0 266.804629 104.560926zM786.47243 502.589517h-213.652825a52.280463 52.280463 0 0 1-52.280463-52.280463V236.656229A237.004765 237.004765 0 0 1 757.195371 0h29.277059a237.004765 237.004765 0 0 1 236.656229 236.656229v29.277059a237.004765 237.004765 0 0 1-236.656229 236.656229z m-161.372362-104.560926h161.372362a132.095303 132.095303 0 0 0 132.095303-132.095303v-29.277059A132.095303 132.095303 0 0 0 786.47243 104.560926h-29.277059a132.095303 132.095303 0 0 0-132.095303 132.095303z" fill="#060404" p-id="1511"></path><path d="M786.47243 1024h-29.277059a237.004765 237.004765 0 0 1-236.656229-236.656229v-213.652825a52.280463 52.280463 0 0 1 52.280463-52.280463h213.652825a237.004765 237.004765 0 0 1 236.656229 236.656229v29.277059a237.004765 237.004765 0 0 1-236.656229 236.656229zM625.100068 627.365555v161.372362a132.095303 132.095303 0 0 0 132.095303 132.095303h29.277059a132.095303 132.095303 0 0 0 132.095303-132.095303v-29.277059A132.095303 132.095303 0 0 0 786.47243 627.365555z" fill="#2DAF62" p-id="1512"></path><path d="M266.804629 1024h-29.277059A237.004765 237.004765 0 0 1 0.871341 787.343771v-29.277059A237.004765 237.004765 0 0 1 237.52757 522.804629h213.652825a52.280463 52.280463 0 0 1 52.280463 52.280463v213.652825a237.004765 237.004765 0 0 1-236.656229 235.262083zM237.52757 627.365555A132.095303 132.095303 0 0 0 105.432267 758.066712v29.277059a132.095303 132.095303 0 0 0 132.095303 132.095303h29.277059a132.095303 132.095303 0 0 0 132.095303-132.095303V627.365555z" fill="#060404" p-id="1513"></path></svg>