<?xml version="1.0" standalone="no"?><!DOCTYPE svg PUBLIC "-//W3C//DTD SVG 1.1//EN" "http://www.w3.org/Graphics/SVG/1.1/DTD/svg11.dtd"><svg t="1620057881711" class="icon" viewBox="0 0 1024 1024" version="1.1" xmlns="http://www.w3.org/2000/svg" p-id="1062" xmlns:xlink="http://www.w3.org/1999/xlink" width="200" height="200"><defs><style type="text/css"></style></defs><path d="M392.2944 1013.2992c107.7248-76.032 220.7744-178.1248 324.3008-297.9328 25.856-29.952 50.176-59.8016 72.8576-89.5488" fill="#ED1C24" p-id="1063"></path><path d="M482.4576 195.6864C343.04 58.5728 203.0592-13.7216 110.336 18.2272c-130.7136 44.9536-125.0816 282.9824 0.6144 562.688 21.6576 48.0256 46.8992 97.3824 75.52 147.0464 62.1568 107.8784 133.0688 204.8512 205.824 285.3888 107.7248-76.032 220.7744-178.1248 324.3008-297.9328 25.856-29.952 50.176-59.8016 72.8576-89.5488" fill="#ED1C24" p-id="1064"></path><path d="M110.9504 580.864c21.6576 48.0256 46.8992 97.3824 75.52 147.0464 62.1568 107.8784 133.0688 204.8512 205.824 285.3888" fill="#ED1C24" p-id="1065"></path><path d="M482.4576 195.6864c189.7984-146.8416 370.7904-218.5728 464.896-169.8304 126.0032 65.1264 53.9648 323.2256-157.9008 599.9616-22.6816 29.696-47.0016 59.5968-72.8576 89.5488-103.5264 119.808-216.576 221.9008-324.3008 297.9328-72.7552-80.5376-143.7184-177.5104-205.824-285.3888-28.6208-49.7152-53.8624-99.0208-75.52-147.0464" fill="#ED1C24" p-id="1066"></path></svg>