<?xml version="1.0" standalone="no"?><!DOCTYPE svg PUBLIC "-//W3C//DTD SVG 1.1//EN" "http://www.w3.org/Graphics/SVG/1.1/DTD/svg11.dtd"><svg t="1620058068743" class="icon" viewBox="0 0 1024 1024" version="1.1" xmlns="http://www.w3.org/2000/svg" p-id="1649" xmlns:xlink="http://www.w3.org/1999/xlink" width="200" height="200"><defs><style type="text/css"></style></defs><path d="M47.573333 320.96c23.36-95.786667 120.213333-167.786667 218.986667-159.573333 70.72-2.88 133.12 40 176.96 92.053333 0.106667 42.026667-0.213333 84.053333-2.026667 126.08 20.373333-11.52 40.533333-23.466667 60.906667-35.093333-13.013333 90.773333-39.253333 178.986667-59.626667 268.16l14.826667-1.706667c12.266667-8.746667 25.066667-16.64 38.293333-23.893333 8.533333 90.773333-12.586667 180.053333-14.506666 270.4-24.106667-11.946667-45.44-28.48-65.6-46.186667C347.733333 750.933333 276.586667 694.4 208.106667 634.666667 157.44 590.4 100.16 549.653333 68.266667 488.64c-25.706667-51.093333-38.4-112-20.693334-167.68zM584.533333 246.4c50.453333-61.44 136.213333-92.373333 213.973334-74.56 109.44 20.053333 191.68 134.293333 172.693333 244.373333-11.413333 71.146667-59.093333 129.706667-112.32 175.253334-89.6 74.986667-183.04 145.066667-274.346667 217.92-29.013333 22.293333-57.28 45.76-89.493333 63.36 9.6-94.186667 57.173333-180.586667 68.373333-275.093334-18.773333 4.48-37.546667 9.066667-56.106666 13.866667 30.08-85.653333 73.706667-165.653333 109.12-249.173333-23.466667 5.333333-46.293333 12.693333-69.546667 18.88 15.253333-44.16 20.8-91.306667 37.653333-134.826667m153.493334 24.106667c35.946667 12.906667 77.44 19.946667 103.36 50.88 29.653333 30.613333 30.72 74.88 38.826666 114.133333 14.506667-0.853333 29.013333-1.92 43.413334-3.2 0.426667-32.533333 3.2-66.986667-11.52-97.173333-26.88-66.453333-98.133333-108.586667-168.96-106.453334-1.92 13.973333-3.626667 27.84-5.12 41.813334z" fill="#d81e06" p-id="1650"></path><path d="M738.026667 270.506667c1.493333-13.973333 3.2-27.84 5.12-41.813334 70.826667-2.133333 142.08 40 168.96 106.453334 14.72 30.186667 11.946667 64.64 11.52 97.173333-14.4 1.28-28.906667 2.346667-43.413334 3.2-8.106667-39.253333-9.173333-83.52-38.826666-114.133333-25.92-30.933333-67.413333-37.973333-103.36-50.88z" fill="#d81e06" p-id="1651"></path></svg>