<?xml version="1.0" standalone="no"?><!DOCTYPE svg PUBLIC "-//W3C//DTD SVG 1.1//EN" "http://www.w3.org/Graphics/SVG/1.1/DTD/svg11.dtd"><svg t="1620057891395" class="icon" viewBox="0 0 1024 1024" version="1.1" xmlns="http://www.w3.org/2000/svg" p-id="1203" xmlns:xlink="http://www.w3.org/1999/xlink" width="200" height="200"><defs><style type="text/css"></style></defs><path d="M511.9488 998.8608c136.0896-68.2496 271.5136-189.184 367.872-341.0944 24.4224-38.5536 45.056-77.1072 61.952-115.0464" fill="#F90315" p-id="1204"></path><path d="M511.9488 86.528C398.4896 29.5936 284.5184 9.3696 192.2048 38.1952 17.2544 92.928-22.9376 306.3808 82.2272 542.6688c16.9472 37.9392 37.5296 76.4928 61.952 115.0464 96.3584 151.9616 231.68 272.896 367.7696 341.0944 136.0896-68.2496 271.5136-189.184 367.872-341.0944 24.4224-38.5536 45.056-77.1072 61.952-115.0464" fill="#F90315" p-id="1205"></path><path d="M511.9488 86.528c113.4592-56.8832 227.4304-77.1584 319.8464-48.2816 175.0016 54.7328 215.1936 268.1856 110.0288 504.4736-16.9472 37.9392-37.5296 76.4928-61.952 115.0464-96.3584 151.9616-231.7312 272.896-367.872 341.0944" fill="#F90315" p-id="1206"></path></svg>