<?xml version="1.0" standalone="no"?><!DOCTYPE svg PUBLIC "-//W3C//DTD SVG 1.1//EN" "http://www.w3.org/Graphics/SVG/1.1/DTD/svg11.dtd"><svg t="1620046362571" class="icon" viewBox="0 0 1407 1024" version="1.1" xmlns="http://www.w3.org/2000/svg" p-id="1373" xmlns:xlink="http://www.w3.org/1999/xlink" width="274.8046875" height="200"><defs><style type="text/css"></style></defs><path d="M703.578433 1023.998329a747.832091 747.832091 0 0 1-695.036082-467.812747 117.287339 117.287339 0 0 1 0-87.881966 750.171155 750.171155 0 0 1 1390.406315 0 117.287339 117.287339 0 0 1 0 86.545358 748.166243 748.166243 0 0 1-695.370233 469.149355z m0-923.261871A647.920655 647.920655 0 0 0 100.434141 506.731092a15.705142 15.705142 0 0 0 0 11.027015 649.925566 649.925566 0 0 0 1204.617824 0 15.705142 15.705142 0 0 0 0-11.027015A648.588958 648.588958 0 0 0 703.578433 100.736458z" fill="#060404" p-id="1374"></path><path d="M703.578433 735.625186a223.213511 223.213511 0 1 1 223.21351-222.879359A223.213511 223.213511 0 0 1 703.578433 735.625186z m0-345.847281a122.967922 122.967922 0 1 0 122.967922 122.967922 122.967922 122.967922 0 0 0-122.967922-123.302074z" fill="#2DAF62" p-id="1375"></path></svg>