<?xml version="1.0" standalone="no"?><!DOCTYPE svg PUBLIC "-//W3C//DTD SVG 1.1//EN" "http://www.w3.org/Graphics/SVG/1.1/DTD/svg11.dtd"><svg t="1620046357058" class="icon" viewBox="0 0 1362 1024" version="1.1" xmlns="http://www.w3.org/2000/svg" p-id="1236" xmlns:xlink="http://www.w3.org/1999/xlink" width="266.015625" height="200"><defs><style type="text/css"></style></defs><path d="M1118.402321 0.00379H241.183495a241.183495 241.183495 0 0 0-241.183495 241.183495v541.62922a241.183495 241.183495 0 0 0 241.183495 241.183495h878.597017a241.183495 241.183495 0 0 0 241.183495-241.183495V241.187285a241.183495 241.183495 0 0 0-242.561686-241.183495zM241.183495 103.368145h878.597017a137.81914 137.81914 0 0 1 137.81914 137.81914v324.219527l-248.419-266.335488a51.33763 51.33763 0 0 0-71.665952-4.134574L551.27656 631.215451 311.815804 468.588866a51.682177 51.682177 0 0 0-61.674065 2.411835L103.364355 588.491518V241.187285a137.81914 137.81914 0 0 1 137.81914-137.81914z m878.597017 815.889309H241.183495a137.81914 137.81914 0 0 1-137.81914-137.81914v-60.295874l181.576717-145.743741 241.183495 163.660229a51.682177 51.682177 0 0 0 63.052256-3.790026l379.002635-329.387745 285.974716 310.093065v66.842283a137.81914 137.81914 0 0 1-135.751853 136.440949z" fill="#060404" p-id="1237"></path><path d="M397.263671 277.364809m-88.893345 0a88.893345 88.893345 0 1 0 177.78669 0 88.893345 88.893345 0 1 0-177.78669 0Z" fill="#2DAF62" p-id="1238"></path></svg>