<?xml version="1.0" standalone="no"?><!DOCTYPE svg PUBLIC "-//W3C//DTD SVG 1.1//EN" "http://www.w3.org/Graphics/SVG/1.1/DTD/svg11.dtd"><svg t="1620096703749" class="icon" viewBox="0 0 1024 1024" version="1.1" xmlns="http://www.w3.org/2000/svg" p-id="1436" xmlns:xlink="http://www.w3.org/1999/xlink" width="200" height="200"><defs><style type="text/css"></style></defs><path d="M497.3 961.5h-11.6v-85.6H620c41.5 0 75.4-33.8 75.4-75.3V679.4H792l-90.4-139.2V393c-4.9-106.8-92.7-190.6-199.9-190.6-110.4 0-200.1 89.8-200.1 200.1v152.6H290V402.5c0-116.8 95-211.7 211.7-211.7 113.4 0 206.3 88.7 211.5 202v144L813.4 691H707v109.6c0 47.9-39 86.9-87 86.9H497.3v74z" fill="#495460" p-id="1437"></path><path d="M688.1 544.2V393.5C683.3 293.9 601.5 216 501.7 216c-102.9 0-186.6 83.7-186.6 186.6v153.8C384 565.8 437 624.9 437 696.3c0 45.1-21.2 85.3-54.1 111.2-15.3 12-24.3 30.1-24.3 49.5v56.9c0 14.4-12.3 26.2-26.7 26.2h9.6v21.4h130.8v-99.1H620c34.1 0 61.8-27.7 61.8-61.8V665.8H767l-78.9-121.6z m-93.5-130.7H430.1L414 425c-11.5 8.2-18.3 21.5-18.3 35.6v19.2h-22.3V378.5c0-15.6 10.3-28.8 24.4-33.3-0.9-3.8-1.4-7.8-1.4-11.9 0-30.1 24.4-54.5 54.5-54.5 18.4 0 34.7 9.1 44.5 23.1 9.9-14 26.1-23.1 44.5-23.1 30.1 0 54.6 24.4 54.6 54.5 0 3.5-0.4 7-1 10.3h1c19.3 0 35 15.6 35 35 0.1 19.2-15.6 34.9-34.9 34.9z" fill="#E7E7E6" p-id="1438"></path><path d="M594.6 419.3H408.4c-22.5 0-40.8-18.3-40.8-40.8 0-16.1 9.3-30.4 23.6-37-0.4-2.8-0.6-5.5-0.6-8.3 0-33.3 27.1-60.3 60.4-60.3 17 0 33.2 7.2 44.5 19.7 11.4-12.4 27.5-19.7 44.5-19.7 33.3 0 60.4 27.1 60.4 60.3 0 1.6-0.1 3.2-0.2 4.9 19.8 2.7 35.2 19.8 35.2 40.4 0 22.5-18.3 40.8-40.8 40.8zM451 284.5c-26.9 0-48.7 21.9-48.7 48.7 0 3.5 0.4 7.1 1.2 10.7l1.2 5.2-5.1 1.6c-12.2 3.9-20.3 15-20.3 27.8 0 16.1 13.1 29.2 29.2 29.2h186.2c16.1 0 29.2-13.1 29.2-29.2s-13.1-29.1-29.2-29.1h-0.8l-7.2 0.2 1.4-7.1c0.6-3.1 0.9-6.2 0.9-9.2 0-26.9-21.9-48.7-48.7-48.7-15.8 0-30.7 7.7-39.8 20.7l-4.7 6.7-4.7-6.7c-9.4-13-24.3-20.8-40.1-20.8z" fill="#495460" p-id="1439"></path><path d="M447.2 362.3h-11.6c0-17.4 14.2-31.6 31.6-31.6v11.6c-11 0.1-20 9-20 20zM530.5 355.2v-11.6c11 0 19.9-9 19.9-20H562c0.1 17.5-14.1 31.6-31.5 31.6zM514.4 388.1h-11.6c0-11-9-19.9-20-19.9v-11.6c17.4-0.1 31.6 14.1 31.6 31.5zM401.6 485.6h-33.9V378.5h11.6c0 16.1 13.1 29.2 29.2 29.2h39.8l-30.8 22c-9.9 7.1-15.8 18.7-15.8 30.9v25zM379.2 474H390v-13.4c0-15.9 7.7-31 20.7-40.4l1.4-1h-3.6c-11.4 0-21.8-4.7-29.2-12.3V474zM146.4 312.1c-44.5 0-80.8-36.2-80.8-80.8 0-44.6 36.3-80.8 80.8-80.8 44.6 0 80.8 36.2 80.8 80.8 0.1 44.5-36.2 80.8-80.8 80.8z m0-150c-38.1 0-69.2 31-69.2 69.2s31 69.2 69.2 69.2 69.2-31 69.2-69.2-31-69.2-69.2-69.2z" fill="#495460" p-id="1440"></path><path d="M201 231.3c0 30.1-24.4 54.6-54.6 54.6-30.2 0-54.6-24.4-54.6-54.6 0-30.2 24.4-54.6 54.6-54.6 30.2 0 54.6 24.4 54.6 54.6zM932.3 231.3c0 30.1-24.4 54.6-54.6 54.6-30.2 0-54.6-24.4-54.6-54.6 0-30.2 24.4-54.6 54.6-54.6 30.1 0 54.6 24.4 54.6 54.6z" fill="#FDDA43" p-id="1441"></path><path d="M877.7 312.1c-44.6 0-80.8-36.2-80.8-80.8 0-44.6 36.3-80.8 80.8-80.8 44.6 0 80.8 36.2 80.8 80.8 0 44.5-36.3 80.8-80.8 80.8z m0-150c-38.2 0-69.2 31-69.2 69.2s31 69.2 69.2 69.2 69.2-31 69.2-69.2-31.1-69.2-69.2-69.2zM345.5 371.2h-11.6v-11.6h11.6v11.6z m-23.3 0h-11.6v-11.6h11.6v11.6z m-23.2 0h-11.6v-11.6H299v11.6z m-23.2 0c-4 0-8.1-0.2-12.1-0.6l1.1-11.6c3.7 0.3 7.4 0.5 11.1 0.6l-0.1 11.6z m-24.1-2.3c-4-0.7-7.9-1.7-11.8-2.7L243 355c3.5 1 7.2 1.8 10.8 2.5l-2.1 11.4z m-23.4-6.5c-3.8-1.4-7.5-3.1-11.1-4.8l5.1-10.4c3.3 1.6 6.7 3.1 10.2 4.4l-4.2 10.8z m-21.7-10.6c-3.4-2.1-6.8-4.3-10.1-6.7l6.9-9.4c3 2.2 6.1 4.2 9.2 6.1l-6 10zM187 337.5c-3-2.7-6-5.5-8.7-8.4l8.4-8c2.5 2.7 5.2 5.3 8 7.7l-7.7 8.7zM170.3 320c-2.5-3.2-4.9-6.5-7.1-9.8l9.7-6.4c2 3.1 4.2 6.1 6.5 9l-9.1 7.2z" fill="#495460" p-id="1442"></path><path d="M740.4 371.2h-11.6v-11.6h11.6v11.6z m-23.3 0h-11.6v-11.6h11.6v11.6z m-23.2 0h-11.6v-11.6h11.6v11.6z m-23.2 0h-11.6v-11.6h11.6v11.6z m81.5-0.1l-0.4-11.6c3.7-0.1 7.4-0.4 11.1-0.9l1.4 11.5c-4 0.6-8.1 0.9-12.1 1z m24-2.9l-2.4-11.3c3.6-0.8 7.2-1.7 10.7-2.8l3.4 11.1c-3.8 1.1-7.8 2.1-11.7 3z m23.2-7.2l-4.4-10.7c3.4-1.4 6.8-3 10.1-4.7l5.4 10.3c-3.7 1.8-7.4 3.5-11.1 5.1z m21.4-11.3l-6.3-9.8c3.1-2 6.1-4.1 9.1-6.4l7.1 9.2c-3.1 2.5-6.5 4.9-9.9 7z m19.2-14.8l-7.9-8.5c2.7-2.5 5.3-5.2 7.8-7.9l8.6 7.8c-2.7 3-5.6 5.9-8.5 8.6z m16.2-18l-9.3-7c1.5-2 3-4.1 4.4-6.2l9.7 6.4c-1.6 2.4-3.2 4.6-4.8 6.8zM851.3 158.8c-1.4-2.1-2.9-4.2-4.4-6.2l9.3-7c1.7 2.2 3.3 4.5 4.8 6.8l-9.7 6.4z m-678.4-0.1l-9.7-6.4c2.2-3.3 4.6-6.6 7.1-9.8l9.1 7.2c-2.3 3-4.5 6-6.5 9zM839.8 144c-2.5-2.7-5.1-5.4-7.8-7.9l7.9-8.5c3 2.7 5.8 5.6 8.5 8.6l-8.6 7.8z m-653.1-2.6l-8.4-8c2.8-2.9 5.7-5.7 8.7-8.4l7.7 8.7c-2.8 2.5-5.5 5.1-8 7.7z m636.9-12.5c-2.9-2.3-6-4.4-9.1-6.4l6.3-9.8c3.4 2.2 6.7 4.5 9.9 7l-7.1 9.2z m-620.2-2.1l-6.9-9.4c3.2-2.4 6.6-4.6 10.1-6.7l6 9.9c-3.2 2-6.3 4-9.2 6.2z m601.5-9.9c-3.3-1.7-6.7-3.3-10.1-4.7l4.4-10.7c3.7 1.5 7.4 3.3 11 5.1l-5.3 10.3z m-582.6-1.5l-5.1-10.4c3.6-1.8 7.4-3.4 11.1-4.8l4.1 10.9c-3.3 1.2-6.8 2.7-10.1 4.3z m562.1-6.9c-3.5-1.1-7.1-2-10.7-2.8l2.4-11.3c3.9 0.8 7.9 1.9 11.7 3.1l-3.4 11z m-541.4-1l-3.1-11.2c3.9-1.1 7.8-2 11.8-2.7l2.1 11.4c-3.6 0.7-7.2 1.5-10.8 2.5z m519.7-3.7c-3.6-0.5-7.4-0.7-11-0.9l0.4-11.6c4 0.1 8.1 0.5 12.1 0.9l-1.5 11.6z m-497.9-0.3l-1.1-11.6c4-0.4 8.1-0.6 12.1-0.6l0.1 11.6c-3.7 0-7.5 0.2-11.1 0.6z m475.5-0.6h-11.6V91.3h11.6v11.6z m-23.3 0h-11.6V91.3H717v11.6z m-23.2 0h-11.6V91.3h11.6v11.6z m-23.2 0H659V91.3h11.6v11.6z m-23.2 0h-11.6V91.3h11.6v11.6z m-23.2 0h-11.6V91.3h11.6v11.6z m-23.3 0h-11.6V91.3h11.6v11.6z m-23.2 0h-11.6V91.3h11.6v11.6z m-23.2 0h-11.6V91.3h11.6v11.6z m-23.2 0h-11.6V91.3h11.6v11.6z m-23.2 0h-11.6V91.3h11.6v11.6z m-23.3 0h-11.6V91.3h11.6v11.6z m-23.2 0H450V91.3h11.6v11.6z m-23.2 0h-11.6V91.3h11.6v11.6z m-23.2 0h-11.6V91.3h11.6v11.6z m-23.3 0h-11.6V91.3h11.6v11.6z m-23.2 0h-11.6V91.3h11.6v11.6z m-23.2 0h-11.6V91.3h11.6v11.6z m-23.2 0h-11.6V91.3h11.6v11.6z m-23.2 0h-11.6V91.3h11.6v11.6zM883.5 248.8h-11.6v-13.4c0-8 4.7-15.4 12.2-19.2 4.8-2.5 7.7-7.3 7.7-12.7-0.1-7.4-6.4-13.7-13.9-13.8-3.8 0-7.4 1.4-10.1 4-2.7 2.7-4.2 6.2-4.2 10H852c0-6.9 2.7-13.4 7.6-18.3 4.9-4.9 11.5-7.5 18.4-7.4 13.8 0.2 25.1 11.5 25.3 25.3 0.1 9.8-5.2 18.7-14 23.2-3.6 1.8-5.9 5.2-5.9 8.9v13.4zM877.7 287.6c-7.8 0-14.1-6.3-14.1-14.1s6.3-14.1 14.1-14.1 14.1 6.3 14.1 14.1-6.3 14.1-14.1 14.1z m0-16.6c-1.4 0-2.5 1.1-2.5 2.5s1.1 2.5 2.5 2.5 2.5-1.1 2.5-2.5-1.2-2.5-2.5-2.5zM152.3 248.8h-11.6v-13.4c0-8 4.7-15.4 12.2-19.2 4.8-2.4 7.7-7.3 7.7-12.7-0.1-7.4-6.4-13.7-13.9-13.8-3.9-0.1-7.4 1.4-10.1 4-2.7 2.7-4.2 6.2-4.2 10h-11.6c0-6.9 2.7-13.4 7.7-18.3 4.9-4.9 11.4-7.5 18.4-7.4 13.8 0.2 25.1 11.5 25.3 25.3 0.1 9.8-5.2 18.7-14 23.2-3.6 1.8-5.9 5.2-5.9 8.9v13.4zM146.4 287.6c-7.8 0-14.1-6.3-14.1-14.1s6.3-14.1 14.1-14.1 14.1 6.3 14.1 14.1c0.1 7.8-6.3 14.1-14.1 14.1z m0-16.6c-1.4 0-2.5 1.1-2.5 2.5s1.1 2.5 2.5 2.5 2.5-1.1 2.5-2.5-1.1-2.5-2.5-2.5z" fill="#495460" p-id="1443"></path><path d="M501 134.5l-8.3-8.1 28.2-29.1-28-26.3 7.9-8.5 36.6 34.4zM364.4 881.8H227.2V857c0-17.4-8.1-34.1-21.7-44.7-36-28-56.6-70.2-56.7-115.7-0.2-79.4 64.2-145.4 143.5-147.3 82.6-2 150.6 64.7 150.6 147 0 45.5-20.5 87.6-56.4 115.7-14 11-22.1 27.4-22.1 44.9v24.9z m-125.6-11.6h114V857c0-21.2 9.7-40.9 26.5-54.1 33-25.9 51.9-64.7 51.9-106.6 0-75.7-62.5-137.1-138.7-135.4-73 1.7-132.3 62.6-132.1 135.7 0.1 41.9 19.1 80.7 52.3 106.5 16.4 12.8 26.2 32.9 26.2 53.8v13.3z" fill="#495460" p-id="1444"></path><path d="M251.7 940.1h89.7v21.3h-89.7z" fill="#F09069" p-id="1445"></path><path d="M331.8 945.9h-72.7c-17.6 0-32-14.3-32-32v-43.7h137.2v43.7c0.1 17.6-14.5 32-32.5 32z m-93-64.1v32.1c0 11.2 9.1 20.4 20.4 20.4h72.7c11.3 0 20.9-9.3 20.9-20.4v-32.1h-114z" fill="#495460" p-id="1446"></path><path d="M415.5 695.6c0 66.3-53.8 120.1-120.1 120.1S175.3 762 175.3 695.6c0-66.3 53.8-120.1 120.1-120.1 66.4 0 120.1 53.8 120.1 120.1z" fill="#FDDA43" p-id="1447"></path><path d="M295.5 764.6c-1.9 0-3.8-0.1-5.6-0.2l0.9-11.6c3.5 0.3 7.1 0.3 10.5-0.1l1.2 11.6c-2.3 0.2-4.7 0.3-7 0.3z m-18.1-2.4c-4.1-1.1-8.1-2.6-11.9-4.4l5-10.5c3.2 1.5 6.5 2.8 9.9 3.7l-3 11.2z m37.5-0.4l-3.3-11.1c3.3-1 6.6-2.3 9.8-3.9l5.3 10.4c-3.8 1.9-7.7 3.4-11.8 4.6z m-60.2-10.5c-3.4-2.5-6.6-5.3-9.5-8.4l8.5-8c2.4 2.6 5.1 4.9 7.9 7l-6.9 9.4z m82.7-0.9l-7.1-9.2c2.8-2.1 5.4-4.5 7.7-7.1l8.6 7.8c-2.7 3.1-5.8 5.9-9.2 8.5z m-100-17.5c-2.3-3.5-4.3-7.3-5.8-11.2l10.7-4.4c1.3 3.2 3 6.4 4.9 9.3l-9.8 6.3z m116.9-1.2l-9.9-6.1c1.8-3 3.4-6.2 4.7-9.4l10.8 4.2c-1.5 3.9-3.4 7.7-5.6 11.3z m-126.4-22.1c-0.9-4.1-1.3-8.3-1.4-12.6l11.6-0.2c0.1 3.5 0.5 7 1.2 10.5l-11.4 2.3z m135.5-1.4l-11.4-2.1c0.6-3.4 1-7 1-10.5v-2.4l11.6-0.5c0 0.9 0.1 1.9 0.1 2.8-0.2 4.3-0.6 8.5-1.3 12.7z m-124.6-21.9l-11.5-1.9c0.7-4.2 1.7-8.3 3.2-12.3l10.9 3.9c-1.1 3.4-2 6.8-2.6 10.3z m112.7-3.5c-0.8-3.4-1.9-6.8-3.3-10l10.7-4.6c1.7 3.9 3 7.9 3.9 12l-11.3 2.6z m-105.6-16.2l-10-5.9c2.1-3.6 4.6-7.1 7.4-10.3l8.8 7.6c-2.3 2.7-4.4 5.5-6.2 8.6z m97.2-3.1c-2-2.9-4.2-5.7-6.7-8.2l8.3-8.1c3 3 5.7 6.3 8 9.8l-9.6 6.5z m-83.4-12.8l-7.2-9.1c3.3-2.6 6.9-5 10.6-7l5.5 10.2c-3.2 1.8-6.2 3.7-8.9 5.9z m68.7-2.1c-2.9-2-5.9-3.8-9.1-5.2l4.8-10.6c3.8 1.7 7.5 3.9 11 6.3l-6.7 9.5z m-50.3-7.8l-3.5-11.1c4-1.3 8.2-2.2 12.4-2.7l1.4 11.5c-3.5 0.5-6.9 1.3-10.3 2.3z m31.3-0.9c-3.4-0.8-6.9-1.4-10.4-1.6l0.7-11.6c4.2 0.3 8.4 0.9 12.5 1.9l-2.8 11.3zM233 900.2h125.6v11.6H233zM175.5 898.3l-9.8-6.3 6.3-9.8 9.8 6.3-6.3 9.8z m12.5-19.6l-9.8-6.3 6.3-9.8 9.8 6.3-6.3 9.8z m12.5-19.5l-9.8-6.3 6.3-9.8 9.8 6.3-6.3 9.8z" fill="#495460" p-id="1448"></path><path d="M88.7 816.1l-6-10 53.4-31.7 6 10z" fill="#495460" p-id="1449"></path><path d="M197 530.1l-6.3-9.8 9.8-6.3 6.3 9.8-9.8 6.3z m-12.5-19.5l-6.3-9.8 9.8-6.3 6.3 9.8-9.8 6.3zM172 491l-6.3-9.8 9.8-6.3 6.3 9.8-9.8 6.3z" fill="#495460" p-id="1450"></path><path d="M136.1 598.8l-53.4-31.7 6-9.9 53.4 31.7z" fill="#495460" p-id="1451"></path><path d="M122.9 690.5H112v-11.6h10.9v11.6z m-22.5 0H88.7v-11.6h11.6v11.6z m-23.3 0H65.5v-11.6h11.6v11.6z" fill="#495460" p-id="1452"></path></svg>