<?xml version="1.0" standalone="no"?><!DOCTYPE svg PUBLIC "-//W3C//DTD SVG 1.1//EN" "http://www.w3.org/Graphics/SVG/1.1/DTD/svg11.dtd"><svg t="1620096719259" class="icon" viewBox="0 0 1024 1024" version="1.1" xmlns="http://www.w3.org/2000/svg" p-id="1598" xmlns:xlink="http://www.w3.org/1999/xlink" width="200" height="200"><defs><style type="text/css"></style></defs><path d="M456.2 363.5H239V91h217.2v272.5z m-205.1-12.1H444V103.2H251.1v248.2z" fill="#495460" p-id="1599"></path><path d="M265.3 117.3h164.6v219.9H265.3z" fill="#E7E7E6" p-id="1600"></path><path d="M795 363.5H577.8V91H795v272.5z m-205.1-12.1h192.9V103.2H589.9v248.2z" fill="#495460" p-id="1601"></path><path d="M604.1 117.3h164.6v219.9H604.1z" fill="#E7E7E6" p-id="1602"></path><path d="M287.4 852.5H70.2V580h217.2v272.5zM82.3 840.3h192.9V592.1H82.3v248.2z" fill="#495460" p-id="1603"></path><path d="M96.5 606.3h164.6v219.9H96.5z" fill="#E7E7E6" p-id="1604"></path><path d="M622.6 852.5H405.4V580h217.2v272.5z m-205.1-12.2h192.9V592.1H417.5v248.2z" fill="#495460" p-id="1605"></path><path d="M431.7 606.3h164.6v219.9H431.7z" fill="#E7E7E6" p-id="1606"></path><path d="M958.2 852.5H741V580h217.2v272.5z m-205.1-12.2H946V592.1H753.1v248.2z" fill="#495460" p-id="1607"></path><path d="M767.3 606.3h164.6v219.9H767.3z" fill="#E7E7E6" p-id="1608"></path><path d="M282.4 138.1h130.5v28H282.4z" fill="#7ECBE1" p-id="1609"></path><path d="M413.9 213.3h-12.1v-12.1h12.1v12.1z m-24.3 0h-12.1v-12.1h12.1v12.1z m-24.3 0h-12.1v-12.1h12.1v12.1z m-24.2 0H329v-12.1h12.1v12.1z m-24.3 0h-12.1v-12.1h12.1v12.1z m-24.3 0h-12.1v-12.1h12.1v12.1zM280.4 235h134.5v12.1H280.4zM413.9 281h-12.1v-12.1h12.1V281z m-24.3 0h-12.1v-12.1h12.1V281z m-24.3 0h-12.1v-12.1h12.1V281z m-24.2 0H329v-12.1h12.1V281z m-24.3 0h-12.1v-12.1h12.1V281z m-24.3 0h-12.1v-12.1h12.1V281zM280.4 302.7h134.5v12.2H280.4z" fill="#495460" p-id="1610"></path><path d="M622 197.6h128.7v115.2H622z" fill="#FDDA43" p-id="1611"></path><path d="M756.8 318.9H616V191.6h140.8v127.3z m-128.7-12.1h116.5v-103H628.1v103zM622 127.7h128.7v12.1H622zM622 156.3h128.7v12.2H622z" fill="#495460" p-id="1612"></path><path d="M181.7 529.3h-12.1v-8c0-34.8 28.3-63 63-63h613.3c28.1 0 50.9-22.8 50.9-50.9V284.2c0-28.1-22.8-50.9-50.9-50.9h-22.3v-12.1h22.3c34.8 0 63 28.3 63 63v123.2c0 34.7-28.3 63-63 63H232.5c-28.1 0-50.9 22.8-50.9 50.9v8zM482.7 221.2h70v12.1h-70zM202.8 234.7h-12.1v-12.1h12.1v12.1z m-24.3 0h-12.1v-12.1h12.1v12.1z m-24.3 0h-12.1v-12.1h12.1v12.1z m-25.1-0.7c-4.4-0.6-8.7-1.6-12.9-3l3.8-11.5c3.5 1.2 7.1 2 10.7 2.5l-1.6 12z m-24.9-8.3c-3.9-2.1-7.5-4.6-11-7.4l7.6-9.4c2.9 2.3 5.9 4.4 9.2 6.2l-5.8 10.6z m-20.5-16.6a67.5 67.5 0 0 1-7.7-10.7l10.5-6.2c1.9 3.2 4 6.2 6.4 9l-9.2 7.9z m-13.4-22.7c-1.5-4.1-2.7-8.4-3.4-12.8l12-2.1c0.6 3.6 1.6 7.2 2.9 10.6l-11.5 4.3z m7.7-25.9H65.8v-12.2H78v12.2z m0-24.2H65.8v-12.2H78v12.2z m0-24.3H65.8V99.8H78V112z m0-24.3H65.8V75.5H78v12.2zM309.5 710.1h72.9v12.1h-72.9zM647.9 710.1h72.9v12.1h-72.9zM791.1 948.5h-8.3v-12.1h8.2c1.2 0 2.3 0 3.5-0.1l0.8 12.1c-1.4 0-2.8 0.1-4.2 0.1z m-20.5 0h-12.1v-12.1h12.1v12.1z m-24.2 0h-12.1v-12.1h12.1v12.1z m-24.3 0H710v-12.1h12.1v12.1z m-24.3 0h-12.1v-12.1h12.1v12.1z m-24.3 0h-12.1v-12.1h12.1v12.1z m-24.3 0h-12.1v-12.1h12.1v12.1z m-24.3 0h-12.1v-12.1h12.1v12.1z m-24.3 0h-12.1v-12.1h12.1v12.1z m-24.3 0h-12.1v-12.1h12.1v12.1z m-24.2 0H540v-12.1h12.1v12.1z m-24.3 0h-12.1v-12.1h12.1v12.1z m-24.3 0h-12.1v-12.1h12.1v12.1z m-24.3 0h-12.1v-12.1h12.1v12.1z m-24.3 0h-12.1v-12.1h12.1v12.1z m-24.3 0h-12.1v-12.1h12.1v12.1z m-24.3 0h-12.1v-12.1h12.1v12.1z m-24.2 0H370v-12.1h12.1v12.1z m-24.3 0h-12.1v-12.1h12.1v12.1z m-24.3 0h-12.1v-12.1h12.1v12.1z m-24.3 0h-12.1v-12.1h12.1v12.1z m-24.3 0h-12.1v-12.1h12.1v12.1z m-24.3 0h-12.1v-12.1h12.1v12.1z m-24.3 0h-12.1v-12.1h12.1v12.1z m572.2-2.4l-3.3-11.7c3.5-1 6.9-2.3 10.1-4l5.6 10.8c-3.9 2-8.1 3.7-12.4 4.9z m23.6-12.4l-7.7-9.4c2.8-2.3 5.4-4.9 7.6-7.7l9.5 7.6c-2.8 3.5-6 6.7-9.4 9.5z m16.6-20.7l-10.8-5.5c1.6-3.2 2.9-6.7 3.9-10.1l11.7 3.1c-1.2 4.3-2.8 8.5-4.8 12.5z m6.8-25.8l-12.1-0.6c0-0.9 0.1-1.8 0.1-2.8v-9.1h12.1v9.1c0 1.2 0 2.3-0.1 3.4z" fill="#495460" p-id="1613"></path><path d="M785.8 627H916v177.8H785.8z" fill="#FDDA43" p-id="1614"></path><path d="M922.1 810.9H779.8v-190h142.3v190z m-130.2-12.2h118V633.1h-118v165.6z" fill="#495460" p-id="1615"></path><path d="M911.1 808.4L780.9 630.6l9.8-7.2 130.2 177.8z" fill="#495460" p-id="1616"></path><path d="M790.7 808.4l-9.8-7.2 130.2-177.8 9.8 7.2zM117.5 620.9h24.6V633h-24.6zM160.3 620.9h80.4V633h-80.4zM178.8 659.5h61.8v12.1h-61.8zM139.2 659.5h21.1v12.1h-21.1zM178.8 693.9h61.8v12.2h-61.8zM139.2 693.9h21.1v12.2h-21.1zM178.8 730.2h61.8v12.2h-61.8zM139.2 730.2h21.1v12.2h-21.1zM243.8 781.5h-12.1v-12.2h12.1v12.2z m-24.3 0h-12.1v-12.2h12.1v12.2z m-24.3 0h-12.1v-12.2h12.1v12.2z m-24.3 0h-12.1v-12.2h12.1v12.2z m-24.2 0h-12.1v-12.2h12.1v12.2z m-24.3 0h-12.1v-12.2h12.1v12.2zM243.8 813.9h-12.1v-12.1h12.1v12.1z m-24.3 0h-12.1v-12.1h12.1v12.1z m-24.3 0h-12.1v-12.1h12.1v12.1z m-24.3 0h-12.1v-12.1h12.1v12.1z m-24.2 0h-12.1v-12.1h12.1v12.1z m-24.3 0h-12.1v-12.1h12.1v12.1z" fill="#495460" p-id="1617"></path><path d="M451 627h124.9v69.6H451z" fill="#7ECBE1" p-id="1618"></path><path d="M418.9 172.1H276.3V132h142.6v40.1zM288.4 160h118.3v-15.8H288.4V160zM582 702.7H445V621h137v81.7z m-124.9-12.1h112.7v-57.5H457.1v57.5z" fill="#495460" p-id="1619"></path><path d="M451 735.2h124.9v69.6H451z" fill="#F09069" p-id="1620"></path><path d="M582 810.9H445v-81.8h137v81.8z m-124.9-12.2h112.7v-57.5H457.1v57.5zM478.7 655.7h67.6v12.1h-67.6z" fill="#495460" p-id="1621"></path><path d="M543.5 776h-12.1v-12.1h12.1V776z m-24.3 0h-12.1v-12.1h12.1V776z m-24.3 0h-12.1v-12.1h12.1V776z" fill="#495460" p-id="1622"></path></svg>