<?xml version="1.0" standalone="no"?><!DOCTYPE svg PUBLIC "-//W3C//DTD SVG 1.1//EN" "http://www.w3.org/Graphics/SVG/1.1/DTD/svg11.dtd"><svg t="1620096663237" class="icon" viewBox="0 0 1024 1024" version="1.1" xmlns="http://www.w3.org/2000/svg" p-id="1127" xmlns:xlink="http://www.w3.org/1999/xlink" width="200" height="200"><defs><style type="text/css"></style></defs><path d="M357.1 654.4c-165.1 0-262-91.2-262.9-92.1l-1.1-6.8 259-491 10.1 5.4-256.9 487c17.7 15.2 108 86 251.8 86v11.5z" fill="#495460" p-id="1128"></path><path d="M357.1 654.4c-165.1 0-262-91.2-262.9-92.1l-1.1-6.8 259-491h10.1l182.4 345.8-10.1 5.3L357.1 79.5 105.3 556.8c17.7 15.2 108 86 251.8 86v11.6z" fill="#495460" p-id="1129"></path><path d="M381.2 627.3c-7.9 0.5-15.9 0.7-24.1 0.7-122.5 0-204-52.7-232.9-75l232.9-441.7 25.1 47.7c12.3 23.4 12.6 51.3 0.7 75l-121 240.2c-18.8 37.3-6.6 82.8 28.4 105.4 23 14.9 53.2 31.6 90.9 47.7z" fill="#FDDA43" p-id="1130"></path><path d="M664.6 666.1L405 533.1l-0.1-10.2L663.7 384h5.4l258.8 138.9-0.1 10.1-258 133-5.2 0.1zM420 527.9l247.2 126.6 245.7-126.6-246.5-132.3L420 527.9z" fill="#495460" p-id="1131"></path><path d="M669.9 952.9l-8.4-5v-287l3.1-5.1 258-133 8.4 5.1v280.9l-3 5-258.1 139.1z m3-288.5v273.8l246.5-132.7V537.4l-246.5 127z" fill="#495460" p-id="1132"></path><path d="M664.4 952.9L406.8 814l-3-5-1.9-281 8.3-5.1 259.5 133 3.1 5.1v286.9l-8.4 5zM415.3 805.5l246.2 132.7V664.5l-248-127 1.8 268z" fill="#495460" p-id="1133"></path><path d="M649.4 836.1V918L427.2 798.3l-1.6-241.1 50.6 25.9c29.6 15.2 48.4 45.6 48.8 78.9 0.2 19.3 0.5 38.9 0.8 56 0.5 32.6 18.7 62.3 47.5 77.6l76.1 40.5z" fill="#F09069" p-id="1134"></path><path d="M414.1 926.1h-10.3v-11.5h10.3v11.5z m-21.8 0h-11.5v-11.5h11.5v11.5z m-22.9 0h-11.5v-11.5h11.5v11.5z m-23 0H335v-11.5h11.5v11.5z m-22.9 0H312v-11.5h11.5v11.5z m-22.9 0h-11.5v-11.5h11.5v11.5z m-23 0h-11.5v-11.5h11.5v11.5z m-22.9 0h-11.5v-11.5h11.5v11.5z m-23 0H220.1l0.3-11.5h11.3v11.5zM208 925c-4-0.6-8-1.4-11.9-2.5l3.1-11.1c3.4 1 7 1.7 10.5 2.2L208 925z m-23.4-6.5c-3.7-1.6-7.4-3.3-10.9-5.3l5.6-10c3.1 1.8 6.4 3.3 9.7 4.7l-4.4 10.6z m-21.1-11.9c-3.2-2.4-6.4-5-9.3-7.8l7.9-8.4c2.6 2.5 5.4 4.8 8.3 6.9l-6.9 9.3zM145.8 890c-2.6-3.1-5-6.4-7.2-9.8l9.6-6.2c2 3 4.1 5.9 6.4 8.7l-8.8 7.3z m-13.2-20.4c-1.8-3.6-3.3-7.4-4.6-11.2l10.8-3.7c1.2 3.4 2.5 6.7 4.1 10l-10.3 4.9z m-7.9-23c-0.8-3.9-1.4-8-1.8-12l11.4-1c0.3 3.6 0.9 7.2 1.6 10.6l-11.2 2.4z m9.3-24h-11.5v-11.5H134v11.5z m0-22.9h-11.5v-11.5H134v11.5z m0-22.9h-11.5v-11.5H134v11.5z m0-23h-11.5v-11.5H134v11.5z m0-22.9h-11.5v-11.5H134v11.5z m0-23h-11.5v-11.5H134v11.5z" fill="#495460" p-id="1135"></path><path d="M404.1 959.5l-7.7-8.5 31.4-28.7-33.5-31.2 7.8-8.4 42.6 39.7zM871.9 389.3h-11.5v-11.5h11.5v11.5z m0-22.9h-11.5v-11.5h11.5v11.5z m0-23h-11.5v-11.5h11.5v11.5z m0-22.9h-11.5V309h11.5v11.5z m0-23h-11.5V286h11.5v11.5z m0-22.9h-11.5v-11.5h11.5v11.5z m-11.8-22.4c-0.3-3.6-0.9-7.2-1.6-10.6l11.2-2.4c0.8 3.9 1.4 8 1.8 12l-11.4 1z m-4.5-21c-1.2-3.4-2.5-6.7-4.1-9.9l10.3-5c1.8 3.6 3.3 7.4 4.6 11.2l-10.8 3.7z m-9.4-19.4c-2-3-4.1-5.9-6.4-8.7l8.8-7.3c2.6 3.1 5 6.4 7.2 9.8l-9.6 6.2z m-13.8-16.5c-2.6-2.5-5.4-4.8-8.3-6.9l6.8-9.2c3.2 2.4 6.4 5 9.3 7.8l-7.8 8.3z m-17.3-12.7c-3.1-1.8-6.4-3.3-9.7-4.7l4.4-10.6c3.7 1.5 7.4 3.3 10.9 5.3l-5.6 10z m-19.8-8.2c-3.4-1-7-1.7-10.5-2.2l1.7-11.3c4 0.6 8 1.4 11.9 2.5l-3.1 11z m-21.3-3.2h-11.3v-11.5H774.3l-0.3 11.5z m-22.8 0h-11.5v-11.5h11.5v11.5z m-22.9 0h-11.5v-11.5h11.5v11.5z m-23 0h-11.5v-11.5h11.5v11.5z m-22.9 0h-11.5v-11.5h11.5v11.5z m-22.9 0H648v-11.5h11.5v11.5z m-23 0H625v-11.5h11.5v11.5z m-22.9 0h-11.5v-11.5h11.5v11.5z m-23 0h-11.5v-11.5h11.5v11.5z" fill="#495460" p-id="1136"></path><path d="M588.7 203l-42.6-39.6 40.6-37.1 7.7 8.4-31.4 28.8 33.5 31.1z" fill="#495460" p-id="1137"></path></svg>